HIERARCHY
ROOT Hips
{
 OFFSET 0.000000 0.000000 0.000000
 CHANNELS 6 Xposition Yposition Zposition Yrotation Xrotation Zrotation
 JOINT Chest
 {
  OFFSET 0.000000 12.953391 -0.028419
  CHANNELS 3 Yrotation Xrotation Zrotation
  JOINT Chest2
  {
   OFFSET 0.000000 10.280254 0.051622
   CHANNELS 3 Yrotation Xrotation Zrotation
   JOINT Chest3
   {
    OFFSET 0.000000 9.287180 0.000000
    CHANNELS 3 Yrotation Xrotation Zrotation
    JOINT Chest4
    {
     OFFSET 0.000000 9.287180 0.000000
     CHANNELS 3 Yrotation Xrotation Zrotation
     JOINT Neck
     {
      OFFSET 0.000000 13.296264 0.000000
      CHANNELS 3 Yrotation Xrotation Zrotation
      JOINT Head
      {
       OFFSET 0.000000 8.959264 0.099003
       CHANNELS 3 Yrotation Xrotation Zrotation
       End Site
       {
        OFFSET 0.000000 17.121337 0.039303
       }
      }
     }
     JOINT RightCollar
     {
      OFFSET -3.193511 7.451388 0.000000
      CHANNELS 3 Yrotation Xrotation Zrotation
      JOINT RightShoulder
      {
       OFFSET -15.792092 0.000000 0.000000
       CHANNELS 3 Yrotation Xrotation Zrotation
       JOINT RightElbow
       {
        OFFSET -31.151839 0.000000 0.000000
        CHANNELS 3 Yrotation Xrotation Zrotation
        JOINT RightWrist
        {
         OFFSET -25.536298 0.000000 0.002321
         CHANNELS 3 Yrotation Xrotation Zrotation
         End Site
         {
          OFFSET -19.133213 0.000000 0.000000
         }
        }
       }
      }
     }
     JOINT LeftCollar
     {
      OFFSET 3.193511 7.451388 0.000000
      CHANNELS 3 Yrotation Xrotation Zrotation
      JOINT LeftShoulder
      {
       OFFSET 15.792092 0.000000 0.000000
       CHANNELS 3 Yrotation Xrotation Zrotation
       JOINT LeftElbow
       {
        OFFSET 31.151839 0.000000 0.000000
        CHANNELS 3 Yrotation Xrotation Zrotation
        JOINT LeftWrist
        {
         OFFSET 25.536298 0.000000 0.002321
         CHANNELS 3 Yrotation Xrotation Zrotation
         End Site
         {
          OFFSET 19.133213 0.000000 0.000000
         }
        }
       }
      }
     }
    }
   }
  }
 }
 JOINT RightHip
 {
  OFFSET -10.745749 0.139252 0.014209
  CHANNELS 3 Yrotation Xrotation Zrotation
  JOINT RightKnee
  {
   OFFSET 0.000000 -43.743899 -0.006071
   CHANNELS 3 Yrotation Xrotation Zrotation
   JOINT RightAnkle
   {
    OFFSET 0.000000 -43.214199 0.089931
    CHANNELS 3 Yrotation Xrotation Zrotation
    JOINT RightToe
    {
     OFFSET 0.000000 -9.699830 19.151588
     CHANNELS 3 Yrotation Xrotation Zrotation
     End Site
     {
      OFFSET 0.000000 -1.292898 4.893873
     }
    }
   }
  }
 }
 JOINT LeftHip
 {
  OFFSET 10.745749 0.139252 0.014209
  CHANNELS 3 Yrotation Xrotation Zrotation
  JOINT LeftKnee
  {
   OFFSET 0.000000 -43.743899 -0.006071
   CHANNELS 3 Yrotation Xrotation Zrotation
   JOINT LeftAnkle
   {
    OFFSET 0.000000 -43.214199 0.089931
    CHANNELS 3 Yrotation Xrotation Zrotation
    JOINT LeftToe
    {
     OFFSET 0.000000 -9.699830 19.151588
     CHANNELS 3 Yrotation Xrotation Zrotation
     End Site
     {
      OFFSET 0.000000 -1.292898 4.893873
     }
    }
   }
  }
 }
}
MOTION
Frames: 11
Frame Time: 0.016667
26.036890 100.435983 279.024013 64.020807 -10.100006 5.832142 -2.871498 9.372003 3.744828 -1.347676 4.142131 1.716799 -1.347676 4.142131 1.716799 -1.021980 3.102861 1.296193 -10.058848 26.823940 2.321499 -18.425116 14.481568 6.242647 5.006070 10.916940 3.573333 10.361538 -23.783367 76.114993 -1.380616 25.587055 -9.579174 -2.709285 18.200563 -53.250351 -1.844879 1.257898 -8.208015 -10.315583 -12.763373 -81.998073 -10.286886 21.896953 -0.911195 9.914550 10.481374 0.740996 -1.787151 13.764620 1.492876 -0.869421 -0.554928 -0.883093 -12.520238 -0.283102 -1.652768 0.000000 -0.000000 0.000000 25.516869 -3.354823 6.061597 -2.644585 13.910841 -1.486243 -8.209920 0.750018 -5.838612 0.000000 0.000000 0.000000
25.935765 100.360058 278.852271 64.046283 -9.900386 5.729299 -2.889984 9.352592 3.734701 -1.355520 4.133419 1.712588 -1.355520 4.133419 1.712587 -1.027809 3.096316 1.293071 -10.003209 26.828509 2.381895 -18.338291 14.492745 6.338041 5.045251 10.917202 3.773938 10.571204 -23.850408 75.718211 -1.405326 25.516360 -9.554107 -2.534671 18.211954 -53.034305 -1.917799 1.153636 -8.177318 -10.132016 -12.547155 -81.902254 -9.445835 21.730646 -1.001389 9.804563 10.624948 0.502579 -1.960350 13.594399 1.424872 -0.976477 -0.717281 -0.739638 -12.202618 -0.264142 -1.687087 0.000000 0.000000 0.000000 25.434823 -3.741215 6.173720 -1.229812 14.489350 -1.398164 -7.459460 0.016092 -5.998947 -0.000000 0.000000 -0.000000
25.834640 100.284132 278.680528 64.071379 -9.700721 5.626607 -2.908527 9.333211 3.724637 -1.363391 4.124719 1.708407 -1.363391 4.124719 1.708406 -1.033659 3.089778 1.289973 -9.947477 26.833050 2.442227 -18.251312 14.503870 6.433331 5.084935 10.917670 3.974539 10.780874 -23.916581 75.320962 -1.430277 25.445834 -9.528928 -2.359946 18.222978 -52.818263 -1.990924 1.049631 -8.146138 -9.947628 -12.331317 -81.806589 -8.605759 21.565984 -1.094888 9.696084 10.772800 0.266278 -2.133630 13.424274 1.357989 -1.084269 -0.878649 -0.595303 -11.884946 -0.244956 -1.720667 0.000000 -0.000000 0.000000 25.352386 -4.127452 6.286709 0.189201 15.068264 -1.291463 -6.710218 -0.713801 -6.190808 0.000000 0.000000 0.000000
25.733802 100.215180 278.503397 64.126711 -9.508040 5.511111 -2.933143 9.315112 3.713109 -1.373932 4.116549 1.703705 -1.373932 4.116549 1.703705 -1.041508 3.083631 1.286504 -9.900944 26.837718 2.500989 -18.180364 14.516126 6.527638 5.124413 10.906454 4.173122 10.942701 -23.982569 74.954650 -1.440752 25.376331 -9.501067 -2.183962 18.266058 -52.571991 -2.063286 0.960461 -8.115090 -9.793482 -12.127287 -81.695584 -7.782226 21.388372 -1.170783 9.588088 10.908116 0.029109 -2.324884 13.247051 1.304427 -1.188596 -1.033901 -0.463797 -11.581096 -0.219256 -1.744722 0.000000 0.000000 0.000000 25.333600 -4.505454 6.386926 1.642993 15.617478 -1.064823 -5.843700 -1.264861 -6.201153 0.000000 -0.000000 0.000000
25.630896 100.156408 278.319383 64.222654 -9.320062 5.374662 -2.970577 9.296541 3.700087 -1.390118 4.108077 1.698591 -1.390118 4.108077 1.698591 -1.053586 3.077243 1.282763 -9.865407 26.844580 2.557403 -18.128357 14.533449 6.619634 5.165090 10.875718 4.372570 11.035369 -24.052107 74.630780 -1.424502 25.305430 -9.465341 -2.005959 18.374482 -52.276571 -2.135608 0.896442 -8.085592 -9.689679 -11.935689 -81.560440 -6.970461 21.180782 -1.218734 9.469971 11.018995 -0.221445 -2.555939 13.051926 1.268974 -1.277333 -1.181715 -0.350131 -11.288599 -0.182311 -1.755387 0.000000 0.000000 0.000000 25.410257 -4.874876 6.460494 3.275832 16.106259 -0.645221 -4.784084 -1.581544 -5.925650 -0.000000 -0.000000 0.000000
25.528277 100.104610 278.129980 64.348667 -9.138788 5.225741 -3.014092 9.279338 3.685652 -1.408981 4.100178 1.692979 -1.408981 4.100177 1.692978 -1.067669 3.071279 1.278666 -9.839046 26.851630 2.612306 -18.092378 14.552076 6.710711 5.205291 10.833181 4.569991 11.080153 -24.122508 74.338313 -1.393911 25.235320 -9.427052 -1.825962 18.514800 -51.950371 -2.207078 0.847305 -8.056428 -9.615677 -11.755680 -81.410215 -6.176181 20.958557 -1.250901 9.351870 11.117289 -0.473855 -2.805058 12.850129 1.247065 -1.362480 -1.323783 -0.249570 -11.009975 -0.139055 -1.756443 0.000000 -0.000000 0.000000 25.550798 -5.236559 6.518297 4.947095 16.549356 -0.104560 -3.604775 -1.750068 -5.452252 -0.000000 -0.000000 0.000000
25.433306 100.057140 277.934276 64.504039 -8.977586 5.076415 -3.049466 9.270124 3.668388 -1.424240 4.095918 1.685992 -1.424240 4.095918 1.685992 -1.079051 3.068059 1.273523 -9.825749 26.852932 2.666659 -18.079922 14.561707 6.804141 5.239682 10.790086 4.754683 11.092836 -24.184907 74.074987 -1.371095 25.173814 -9.399362 -1.644278 18.619480 -51.619412 -2.274462 0.796727 -8.024355 -9.541701 -11.596798 -81.255947 -5.429835 20.755518 -1.277927 9.263985 11.220661 -0.695102 -3.024823 12.667453 1.236243 -1.475930 -1.459593 -0.161388 -10.766584 -0.097810 -1.750763 0.000000 -0.000000 0.000000 25.724235 -5.584477 6.583124 6.258961 16.990975 0.437195 -2.410770 -1.809781 -4.850352 -0.000000 -0.000000 0.000000
25.349026 100.013807 277.733263 64.690295 -8.840901 4.930315 -3.074616 9.270678 3.647730 -1.434970 4.096100 1.677349 -1.434970 4.096098 1.677348 -1.087036 3.068184 1.267115 -9.830769 26.846541 2.718556 -18.100133 14.559237 6.897827 5.268913 10.756373 4.924378 11.062677 -24.247165 73.848717 -1.367832 25.140240 -9.394109 -1.446221 18.661978 -51.289559 -2.336548 0.740367 -7.990133 -9.456003 -11.465183 -81.099436 -4.720188 20.593594 -1.298863 9.220078 11.338717 -0.876458 -3.184351 12.514304 1.240117 -1.645298 -1.591872 -0.086458 -10.564808 -0.061788 -1.740075 -0.000000 -0.000000 0.000000 25.971802 -5.922895 6.645692 6.990450 17.437582 0.948903 -1.142863 -1.683806 -4.040501 0.000000 -0.000000 -0.000000
25.272393 99.974803 277.525948 64.906080 -8.724064 4.783823 -3.091589 9.279208 3.624182 -1.442074 4.099912 1.667304 -1.442072 4.099908 1.667302 -1.092302 3.071044 1.259639 -9.848912 26.834504 2.769979 -18.144036 14.548092 6.993956 5.292330 10.721751 5.081295 10.999945 -24.301153 73.651940 -1.372054 25.115328 -9.399397 -1.247082 18.669028 -50.955534 -2.394619 0.682488 -7.953161 -9.370761 -11.355288 -80.938400 -4.056811 20.450733 -1.310158 9.206659 11.459566 -1.026280 -3.314603 12.380001 1.253859 -1.842779 -1.717947 -0.024200 -10.398274 -0.027903 -1.723047 -0.000000 0.000000 -0.000000 26.252351 -6.248022 6.713831 7.359327 17.892648 1.451076 0.147036 -1.453254 -3.085378 0.000000 0.000000 0.000000
25.201637 99.938064 277.308449 65.146492 -8.626842 4.638003 -3.092335 9.296920 3.597866 -1.441999 4.107959 1.655763 -1.441999 4.107959 1.655763 -1.092192 3.077112 1.251005 -9.868417 26.816777 2.827690 -18.192033 14.527650 7.102229 5.302543 10.667050 5.221407 10.951731 -24.313391 73.458919 -1.370249 25.049142 -9.392623 -1.092462 18.653798 -50.627051 -2.449282 0.619618 -7.908162 -9.292368 -11.259462 -80.777453 -3.500539 20.295466 -1.316781 9.213190 11.567425 -1.137272 -3.460844 12.258605 1.262149 -2.017113 -1.829250 0.028187 -10.269195 0.004988 -1.698168 0.000000 0.000000 0.000000 26.410831 -6.541969 6.838986 7.624536 18.407576 1.900906 1.181289 -1.362615 -2.284295 0.000000 0.000000 0.000000
25.135594 99.902706 277.080972 65.403416 -8.550806 4.491073 -3.069688 9.328350 3.569912 -1.431624 4.122294 1.643103 -1.431626 4.122296 1.643105 -1.084367 3.087924 1.241478 -9.885360 26.790036 2.894523 -18.238029 14.491889 7.227354 5.292450 10.575913 5.340814 10.960581 -24.262719 73.249214 -1.360378 24.889446 -9.365327 -0.980499 18.602239 -50.248985 -2.501694 0.545367 -7.850132 -9.229246 -11.176974 -80.620036 -3.062806 20.107213 -1.317630 9.246051 11.663648 -1.205657 -3.635102 12.149557 1.265362 -2.145294 -1.922611 0.067591 -10.180328 0.038250 -1.665062 0.000000 0.000000 0.000000 26.380061 -6.805492 7.049871 7.865500 19.028588 2.291105 1.854100 -1.522287 -1.770952 0.000000 0.000000 0.000000
